<svg width="512" height="512" viewBox="0 0 512 512" fill="none" xmlns="http://www.w3.org/2000/svg">
<g id="Canis">
<g id="stars">
<circle id="Ellipse 1" cx="287.568" cy="100.886" r="2" fill="#FFFFF2"/>
<circle id="Ellipse 2" cx="149.5" cy="335.091" r="2" fill="#FFFFF2"/>
<circle id="Ellipse 4" cx="217" cy="117.25" r="2" fill="#FFFFF2"/>
<circle id="Ellipse 15" cx="469.614" cy="427.136" r="2" fill="#FFFFF2"/>
<circle id="Ellipse 16" cx="312.114" cy="494.636" r="2" fill="#FFFFF2"/>
<circle id="Ellipse 9" cx="398.023" cy="215.432" r="2" fill="#FFFFF2"/>
<path id="Ellipse 10" d="M268.913 287.534C268.913 288.639 268.018 289.534 266.913 289.534C265.809 289.534 264.913 288.639 264.913 287.534C264.913 286.43 265.809 285.534 266.913 285.534C268.018 285.534 268.913 286.43 268.913 287.534Z" fill="#FFFFF2"/>
<circle id="Ellipse 11" cx="233.364" cy="384.182" r="2" fill="#FFFFF2"/>
<circle id="Ellipse 12" cx="195.523" cy="255.318" r="2" fill="#FFFFF2"/>
<circle id="Ellipse 13" cx="95.2955" cy="367.818" r="2" fill="#FFFFF2"/>
<circle id="Ellipse 14" cx="37" cy="443.5" r="2" fill="#FFFFF2"/>
<circle id="Ellipse 7" cx="389.841" cy="133.614" r="2" fill="#FFFFF2"/>
<circle id="Ellipse 8" cx="469.614" cy="117.25" r="2" fill="#FFFFF2"/>
<circle id="Ellipse 5" cx="165.864" cy="76.3409" r="2" fill="#FFFFF2"/>
<circle id="Ellipse 6" cx="238.477" cy="16" r="2" fill="#FFFFF2"/>
<circle id="Ellipse 3" cx="249.727" cy="400.545" r="2" fill="#FFFFF2"/>
</g>
<path id="Vector 1" d="M286 101L217 117.5L165.5 76.5L238.5 16L217.5 116M287 102L195.5 255L149.5 335L233 383.5L267 287.5L388.5 133.452L289 101M250 401L249 400L233.544 385.719M250 402L311.5 494M251 401L468.936 427.593M390 135L398 214.5M391.323 133L468.5 117.5M148 335.5L95.5 368L37.5 442.5" stroke="#FFFFF2"/>
</g>
</svg>
