<svg width="512" height="512" viewBox="0 0 512 512" fill="none" xmlns="http://www.w3.org/2000/svg">
<g id="Scorpius">
<g id="Group 1">
<circle id="Ellipse 1" cx="353.106" cy="132.649" r="2" fill="#FFFFF2"/>
<circle id="Ellipse 2" cx="471.554" cy="16.4783" r="2" fill="#FFFFF2"/>
<circle id="Ellipse 3" cx="489.777" cy="66.5911" r="2" fill="#FFFFF2"/>
<circle id="Ellipse 4" cx="489.777" cy="132.649" r="2" fill="#FFFFF2"/>
<circle id="Ellipse 5" cx="320.077" cy="188.456" r="2" fill="#FFFFF2"/>
<circle id="Ellipse 11" cx="8.01176" cy="424.214" r="2" fill="#FFFFF2"/>
<circle id="Ellipse 12" cx="43.3185" cy="390.046" r="2" fill="#FFFFF2"/>
<circle id="Ellipse 13" cx="79.7641" cy="339.933" r="2" fill="#FFFFF2"/>
<circle id="Ellipse 6" cx="271.104" cy="298.932" r="2" fill="#FFFFF2"/>
<circle id="Ellipse 7" cx="261.992" cy="380.935" r="2" fill="#FFFFF2"/>
<circle id="Ellipse 8" cx="257.436" cy="454.965" r="2" fill="#FFFFF2"/>
<circle id="Ellipse 9" cx="168.6" cy="473.187" r="2" fill="#FFFFF2"/>
<circle id="Ellipse 10" cx="61.5413" cy="464.076" r="2" fill="#FFFFF2"/>
</g>
<path id="Vector 1" d="M353.5 131L471 17.5M354 133.5L489 132.5M354 132L489 67M353 133L320 188.5L271 299L262 381L257.5 455L168.5 473L61.5 464L8 424L43.5 390L79.5 340" stroke="#FFFFF2"/>
</g>
</svg>
