<svg className='constellation-svg' width="512" height="512" viewBox="0 0 512 512" fill="none" xmlns="http://www.w3.org/2000/svg">
<g id="Taurus" clip-path="url(#clip0_7_2)">
<g id="Dots">
<ellipse id="Ellipse 11" cx="419.608" cy="496.261" rx="6.47236" ry="6.90385" transform="rotate(22.0191 419.608 496.261)" fill="#FFFFF2"/>
<ellipse id="Ellipse 10" cx="416.02" cy="470.607" rx="6.47236" ry="6.90385" transform="rotate(22.0191 416.02 470.607)" fill="#FFFFF2"/>
<ellipse id="Ellipse 9" cx="380.106" cy="416.987" rx="6.47236" ry="6.90385" transform="rotate(22.0191 380.106 416.987)" fill="#FFFFF2"/>
<ellipse id="Ellipse 8" cx="245.66" cy="304.9" rx="12.9447" ry="13.8077" transform="rotate(22.0191 245.66 304.9)" fill="#FFFFF2"/>
<ellipse id="Ellipse 7" cx="279.073" cy="325.859" rx="6.47236" ry="6.90385" transform="rotate(22.0191 279.073 325.859)" fill="#FFFFF2"/>
<ellipse id="Ellipse 6" cx="325.987" cy="352.279" rx="6.47236" ry="6.90385" transform="rotate(22.0191 325.987 352.279)" fill="#FFFFF2"/>
<ellipse id="Ellipse 5" cx="334.369" cy="297.024" rx="6.47236" ry="6.90385" transform="rotate(22.0191 334.369 297.024)" fill="#FFFFF2"/>
<ellipse id="Ellipse 4" cx="315.163" cy="253.883" rx="6.47236" ry="6.90385" transform="rotate(22.0191 315.163 253.883)" fill="#FFFFF2"/>
<ellipse id="Ellipse 3" cx="272.897" cy="164.181" rx="6.47236" ry="6.90385" transform="rotate(22.0191 272.897 164.181)" fill="#FFFFF2"/>
<ellipse id="Ellipse 2" cx="38.3276" cy="127.033" rx="6.47236" ry="6.90385" transform="rotate(22.0191 38.3276 127.033)" fill="#FFFFF2"/>
<ellipse id="Ellipse 1" cx="145.171" cy="20.3698" rx="12.9447" ry="13.8077" transform="rotate(22.0191 145.171 20.3698)" fill="#FFFFF2"/>
</g>
<path id="Vector 1" d="M326.904 354.563L380.458 417.308L415.504 470.925L419.301 497.112M326.07 350.528L334.118 297.083L315.308 254.142L272.255 164.417L145.047 20.5271M323.589 351.579L279.17 326.22L245.704 305.29L38.1612 127.268" stroke="#FFFFF2" stroke-width="3"/>
</g>
<defs>
<clipPath id="clip0_7_2">
<rect width="512" height="512" fill="white"/>
</clipPath>
</defs>
</svg>
