<svg width="512" height="512" viewBox="0 0 512 512" fill="none" xmlns="http://www.w3.org/2000/svg">
<g id="Taurus" clip-path="url(#clip0_7_2)">
<g id="Dots">
<circle id="Ellipse 11" cx="417.3" cy="490.038" r="2" transform="rotate(22.0191 417.3 490.038)" fill="#FFFFF2"/>
<circle id="Ellipse 10" cx="413.712" cy="464.384" r="2" transform="rotate(22.0191 413.712 464.384)" fill="#FFFFF2"/>
<circle id="Ellipse 9" cx="377.799" cy="410.764" r="2" transform="rotate(22.0191 377.799 410.764)" fill="#FFFFF2"/>
<circle id="Ellipse 8" cx="239.94" cy="289.85" r="2" transform="rotate(22.0191 239.94 289.85)" fill="#FFFFF2"/>
<circle id="Ellipse 7" cx="276.765" cy="319.637" r="2" transform="rotate(22.0191 276.765 319.637)" fill="#FFFFF2"/>
<circle id="Ellipse 6" cx="323.679" cy="346.056" r="2" transform="rotate(22.0191 323.679 346.056)" fill="#FFFFF2"/>
<circle id="Ellipse 5" cx="332.062" cy="290.801" r="2" transform="rotate(22.0191 332.062 290.801)" fill="#FFFFF2"/>
<circle id="Ellipse 4" cx="312.855" cy="247.66" r="2" transform="rotate(22.0191 312.855 247.66)" fill="#FFFFF2"/>
<circle id="Ellipse 3" cx="270.589" cy="157.958" r="2" transform="rotate(22.0191 270.589 157.958)" fill="#FFFFF2"/>
<circle id="Ellipse 2" cx="36.02" cy="120.81" r="2" transform="rotate(22.0191 36.02 120.81)" fill="#FFFFF2"/>
<circle id="Ellipse 1" cx="139.451" cy="5.32" r="2" transform="rotate(22.0191 139.451 5.32)" fill="#FFFFF2"/>
</g>
<path id="Vector 1" d="M323.5 346.5L377.5 410.5L413.5 464L417.5 489M324 345L332 291L313 247.5L270.5 158L140 5.99999M322 345.5L276.5 319.5L240 290L36 121" stroke="#FFFFF2"/>
</g>
</svg>
